<?xml version="1.0" encoding="utf-8"?>
<!-- Generator: Adobe Illustrator 22.1.0, SVG Export Plug-In . SVG Version: 6.00 Build 0)  -->
<svg version="1.1" id="Layer_1" xmlns="http://www.w3.org/2000/svg" xmlns:xlink="http://www.w3.org/1999/xlink" x="0px" y="0px"
	 viewBox="0 0 205.3 84.2" style="enable-background:new 0 0 205.3 84.2;" xml:space="preserve">
<style type="text/css">
	.st0{fill:#FFFFFF;}
</style>
<path id="SVGID_4_" class="st0" d="M65.6,66.1l-0.4,0.1c-0.3,0.1-0.8,0.3-1.1,0.4c-0.4,0.1-0.4,0.5-0.4,0.7l0,0v0.1
	c0,0.5,0.1,1.1,0.1,1.9v0.2l0,0l0,0c0,0,0.1,0.1,0.2,0.1s0.2,0.1,0.4,0.2c0.4,0.2,0.9,0.5,1.3,0.5c0.2,0,0.4-0.1,0.5-0.6
	c0.2-1.1,0.4-2.2,0.3-3.1c0-0.4-0.2-0.6-0.6-0.6C65.9,66.1,65.8,66.1,65.6,66.1 M18.8,62.4L18.8,62.4c-0.1,0-0.2,0.1-0.3,0.1
	c-0.5,0.1-0.6,0.5-0.6,0.9c-0.2,0.2-0.2,0.5-0.1,0.7c0,0.1,0.1,0.2,0.1,0.4c0.1,0.3,0.2,0.6,0.3,0.9c0.2,0.4,0.6,0.5,1,0.5h0.1
	c0.2,0,0.4,0,0.6,0c0.5,0,0.8-0.1,1-0.3c0.2-0.2,0.2-0.4,0.2-0.7c0-0.3-0.1-0.6-0.1-0.8l0,0c0-0.1,0-0.2-0.1-0.3c0-0.1,0-0.1,0-0.2
	l0,0c0-0.3-0.1-0.6-0.2-0.9c-0.2-0.3-0.5-0.5-0.9-0.5C19.5,62.2,19.2,62.3,18.8,62.4 M23.3,61.9C23,62,22.8,62,22.5,62h-0.1l0,0
	c-0.3,0-0.5,0.2-0.6,0.3c-0.2,0.2-0.2,0.5-0.1,0.8c-0.1,0.2-0.1,0.4-0.1,0.6c0,0.1,0,0.2,0.1,0.3l0,0c0.1,0.4,0.2,0.8,0.4,1.1
	c0.2,0.3,0.6,0.5,1,0.5c0.2,0,0.3,0,0.5-0.1c0.6-0.1,0.9-0.5,0.9-1.2c0-0.5,0-1,0-1.5c0-0.4-0.4-0.9-0.8-0.9
	C23.4,61.9,23.3,61.9,23.3,61.9 M88.2,51.9c-5.1,4.9-11.6,8.5-18.5,10.1l3.9-3c0.3-0.3,1.4-1.2,0.9-2c-0.2-0.3-0.5-0.4-0.9-0.4
	c-0.2,0-0.3,0-0.5,0.1c-0.4,0.2-0.8,0.5-1.1,0.8l0,0c-2.3,2.3-4.4,3.5-6.5,3.7c-0.2,0-0.4,0-0.6,0c-2.3,0-4.5-1.2-6.7-2.4l0,0l0,0
	c-2.2-1.2-4.4-2.4-6.8-2.4c-0.2,0-0.4,0-0.6,0c-0.8,0.1-1.3,0.3-1.6,0.8c-0.1,0.3-0.1,0.6,0,0.9c0.1,0.2,0.4,0.4,0.6,0.4
	c0.1,0,0.1,0,0.2,0c0.5-0.2,1-0.3,1.5-0.3c1.2,0,2.7,0.5,4.3,1.3c0.4,0.2,0.8,0.5,1.2,0.7c1.3,0.8,2.7,1.6,4.2,2
	c-0.1,0.1-0.2,0.1-0.4,0.1c-0.8,0.1-1.6,0.1-2.5,0.1c-3.1,0-6.2-0.7-9.3-1.3l0,0c-1.5-0.3-3-0.6-4.6-0.9c-1.3-0.2-2.6-0.4-3.9-0.4
	c0.5-0.2,1-0.5,1.4-1c0.3-0.3,0.4-0.8,0.4-1.3c0-0.3-0.2-0.6-0.4-0.8l0,0.3h-0.1c-3.8,3-8.3,5-13.1,6h-0.1v0.1
	c0.2,1,1.2,1.5,2.1,1.5h0.1c0.8-0.1,1.6-0.4,2.3-0.7l0,0c0.1-0.1,0.2-0.1,0.3-0.2c1.6-0.7,3.3-1.2,5.1-1.4c0.6-0.1,1.2-0.1,1.8-0.1
	c2.8,0,5.7,0.6,8.4,1.2c2.2,0.5,4.4,1,6.6,1.2c0.9,0.1,1.8,0.1,2.8,0.1c1.5,0,3.1-0.1,4.6-0.2l0,0c1.8-0.1,3.6-0.2,5.4-0.5
	c8.2-1.2,14.2-3.6,19.1-7.5c0.5-0.4,1-0.8,1.3-1.4C88.8,54.5,88.7,52.3,88.2,51.9L88.2,51.9L88.2,51.9z M162.9,51.1
	c-0.7,0.3-1.8,0.8-2.8,1.6c-2.4,1.9-3.4,4.2-2.9,6.6c0.3,1.3,1,2.8,2.7,2.8c1.6,0,3.4-1.6,4.1-2.6c0.1-0.1,0.2-0.2,0.3-0.4V59
	l0.1-0.1c0.2-0.4,0.4-0.8,0.6-1.2c0.3,0.8,0.7,1.6,1.3,2.1c0.8,0.6,1.9,1.5,3.7,1.6c2.5,0.1,4.2-1.5,5.2-2.4
	c0.2-0.2,0.3-0.3,0.5-0.4c0.2-0.1,0.4-0.3,0.6-0.5l0,0c0.9-0.8,1.1-0.9,1.1-0.9c0.2,0,0.2,0,0.2,0.6c0,0.3,0.1,0.8,0.2,1.4
	c0.2,0.8,1.4,4.8,4,5.1c0.1,0,0.2,0,0.3,0c2.5,0,5.1-3.6,5.1-3.7c0.1-0.2,0.4-0.6,0.8-0.6c0.2,0,0.5,0.1,0.7,0.7
	c0.4,1.4,1.1,2.2,2.3,2.4c0.1,0,0.2,0,0.3,0c1,0,1.4-1.3,1.8-2.7v-0.1c0.3-1,0.5-1.9,1-1.9c0.2,0,0.4,0.2,0.6,0.5
	c0.2,0.4,3.1,4.4,6.7,4.9c0.2,0,0.4,0,0.6,0c1.9,0,3-1.4,3.3-1.8v-0.1c0-0.1,0-0.1,0-0.2c0-0.1,0-0.2-0.1-0.2
	c-0.1-0.1-0.2-0.2-0.4-0.2c-0.1,0-0.3,0-0.4,0.1c-0.4,0.1-1,0.3-1.6,0.3c-1.6,0-3.1-0.9-4.4-2.7c-1.2-1.6-1.8-2.8-2.2-3.6l0,0
	c-0.2-0.4-0.6-0.7-1.1-0.7c-0.3,0-0.5,0.1-0.7,0.1c-0.3,0.1-0.5,0.3-0.8,0.4l0,0c-0.7,0.3-1.1,1.2-1.2,1.6c-0.5,1.4-0.7,1.4-0.9,1.4
	c-0.1,0-0.4-0.1-0.4-0.6c-0.1-0.8-0.2-2.6-0.2-2.9c0-0.3-0.3-0.6-0.6-0.6c-0.6,0-1.6,0.9-1.8,1c-0.5,0.6-1.1,1.5-1.4,2.2l0,0
	c-0.1,0.2-0.2,0.3-0.2,0.4c-0.9,1.8-2.4,4-4,4c-0.1,0-0.2,0-0.2,0c-2.4-0.3-3.1-5.5-3.2-7.1c-0.1-0.6-0.4-0.8-0.8-0.8
	c-0.2,0-0.3,0-0.5,0.1s-0.4,0.3-0.8,0.7c-0.3,0.3-0.6,0.7-1,1c-1.2,1.3-2.6,3-5.8,3.4h-0.1c-1.1,0-2-0.4-2.7-1.2
	c-0.7-0.9-0.9-2.1-0.9-2.9v-0.3c0-0.4-0.3-0.7-0.6-0.7c-0.2,0-0.4,0.1-0.6,0.2c-0.2,0.2-0.4,0.3-0.6,0.4c-0.4,0.3-0.7,0.8-0.7,1
	c-0.3,0.8-1.5,3.6-3.1,3.6c-0.2,0-0.3,0-0.5-0.1c0,0,0,0-0.1,0c-0.1-0.1-0.8-0.6-0.7-1.7c0-1.5,1.2-3.1,3.7-4.9
	c0.3-0.2,0.5-0.5,0.5-0.8c0-0.1,0-0.3-0.1-0.5l0,0c0-0.1-0.2-0.2-0.5-0.2C163.1,51,163,51,162.9,51.1 M20.1,50l-1,0.7l0,0
	c-0.3,0.4-0.6,0.8-0.7,1.3c-0.2,0.6-0.2,1,0.1,1.3c0.2,0.3,0.6,0.4,0.9,0.4c0.6,0.1,1.2,0.2,1.7,0.2h0.1c0.1,0,0.2,0,0.3-0.1
	c0.2-0.1,0.2-0.2,0.3-0.4c0.3-0.6,0.5-1.4,0.5-2.1c0-0.2,0-0.5-0.1-0.8c-0.2-0.3-0.5-0.6-1-0.7c-0.1,0-0.3,0-0.5,0
	C20.6,50,20.3,50,20.1,50 M178.8,46.2l-0.3,0.1c-0.2,0.1-0.7,0.2-1,0.4c-0.5,0.2-0.5,0.8-0.5,0.9l0,0c0,0.5,0.1,1.1,0.1,1.8v0.1
	c0,0.1,0,0.2,0.1,0.3s0.2,0.1,0.3,0.2c0.1,0,0.2,0.1,0.3,0.2l0,0c0.4,0.2,0.9,0.5,1.3,0.5c0.5,0,0.6-0.5,0.7-0.8
	c0.2-1,0.3-2.2,0.3-3c0-0.5-0.3-0.8-0.8-0.8C179.1,46.2,179,46.2,178.8,46.2 M119.9,42c-0.8,0.4-2.5,3.3-1.9,9.4v0.1c0,0,0,0,0,0.1
	c-0.3,5.9-1.6,7.8-6.3,9.4c-0.8,0.3-1.5,0.4-2.1,0.4c-2.6,0-3.5-2.3-4.1-4.1c-0.2-0.4-0.3-0.9-0.5-1.3c-0.1-0.3-0.2-0.5-0.4-0.6
	c-0.1-0.1-0.2-0.1-0.3-0.1c-0.4,0.1-0.9,0.7-1.8,2c-0.4,0.5-0.8,1.1-1.2,1.5c-0.5,0.6-0.9,0.9-1.2,0.9c-0.2,0-0.4-0.1-0.6-0.4
	c-0.3-0.7,0.2-1.9,1.2-3.4c0.7-1,2.3-1.5,3.4-1.5c0.2,0,0.3,0,0.4-0.1l0,0c0.2,0,0.4-0.2,0.4-0.4c0-0.1-0.1-0.3-0.1-0.3
	c-0.5-0.5-1.6-0.7-2.5-0.7c-0.6,0-1.3,0.3-2.2,1c-1.2,0.8-2.2,2-2.8,3.5c-0.6,1.3-0.8,2.5-0.6,3.4c0.3,1,0.8,1.5,1.7,1.5
	c2.2,0,4.1-2.1,4.5-2.6l0,0l0.1-0.1c0.2-0.2,0.3-0.5,0.5-0.7c0,0.1,0.1,0.3,0.2,0.6l0,0c0.1,0.3,1.6,4.2,6,4.2
	c0.7,0,1.4-0.1,2.1-0.3c3.4-0.9,5.1-3.7,5.7-5v0.3v0.2c0,0.8,0,2.6,0.3,3.1c0.3,0.4,0.8,0.6,1.5,0.6c0.2,0,0.6,0,0.8-0.1
	c1-0.1,1.8-1.8,2.4-3.1c0.1-0.2,0.2-0.4,0.3-0.6l0.1-0.1c0.3-0.6,0.6-1.1,0.8-1.4c0.2-0.3,0.6-0.6,1-0.6s1.1,0.8,2.9,2.8
	c0.4,0.5,0.9,1,1.5,1.7c0.6,0.6,1.5,0.9,2.5,0.9c1.9,0,3.5-1.5,4.7-2.7c0.1-0.1,0.2-0.2,0.3-0.3c0.6-0.6,1.1-0.8,1.6-0.8
	c0.6,0,0.9,0.4,1,0.6c0.3,0.4,2.6,3.5,3.3,4.3c0.4,0.5,0.8,0.5,1.6,0.6h0.4h0.1c0.4,0,1.3-0.1,1.8-1.1c0.2-0.4,0.4-0.9,0.6-1.4
	c0.4-0.9,0.7-1.9,1.3-2.7c1.2-1.9,3.9-4,6.6-4c0,0,0.2,0,0.3,0c0.2,0,0.3,0,0.4,0c0.6,0,1-0.3,1-0.6s-0.1-0.5-0.4-0.8
	c-0.5-0.4-1.6-0.8-3-0.8c-2.3,0-5.1,2.5-6.8,5c-0.3,0.4-0.6,1.1-0.9,1.7c-0.2,0.4-0.4,0.8-0.5,1v0.1l-0.1,0.1
	c-0.2,0.2-0.4,0.2-0.6,0.2c-0.3,0-0.5-0.2-0.5-0.2l-0.1-0.1c-2.1-1.8-3.1-3.1-3.7-3.8c-0.3-0.4-0.7-0.5-1.2-0.5
	c-0.6,0-1.2,0.3-1.5,0.4c-0.5,0.3-1,0.7-1.6,1.2l0,0c-0.6,0.4-1.2,0.9-1.9,1.4c-0.5,0.4-1.1,0.6-1.6,0.6c-2.2,0-4.4-2.9-5.1-3.8
	c-0.2-0.3-0.4-0.6-0.6-0.9c-0.3-0.4-0.6-0.5-1-0.5c-1.3,0-2.6,1.6-3.9,3.2l-0.1,0.2c-0.2,0.2-0.4,0.3-0.5,0.3s-0.2,0-0.3-0.1
	c-0.1-0.1-0.2-0.2-0.2-0.3c0-0.6-0.1-1.2-0.2-1.7c-0.1-1-0.2-1.6-0.1-1.9c0-0.4,0.1-0.7,0.3-0.9c0.4-1,1.1-3.1,0.7-6.5
	c-0.2-2-0.7-3.4-0.9-3.7c0,0,0,0,0-0.1l0,0c0,0,0-0.1-0.1-0.1c-0.1-0.1-0.2-0.2-0.3-0.2C120,41.9,120,42,119.9,42 M124.8,26.2
	c0,0.4,0.3,0.8,0.7,0.8c0.4,0,0.7-0.3,0.7-0.8c0-0.4-0.3-0.8-0.7-0.8C125.1,25.5,124.8,25.8,124.8,26.2 M167,26.2
	c0,0.4,0.3,0.8,0.7,0.8s0.7-0.3,0.7-0.8c0-0.4-0.3-0.8-0.7-0.8C167.3,25.5,167,25.8,167,26.2 M107.5,18.1c-0.1,0-0.2,0.1-0.2,0.2V24
	c0,1.3-0.8,2.1-2,2.1s-2-0.8-2-2.1v-5.6c0-0.1-0.1-0.2-0.2-0.2h-0.6c-0.1,0-0.2,0.1-0.2,0.2V24c0,1.8,1.3,3,3.1,3
	c1.8,0,3.1-1.2,3.1-3v-5.7c0-0.1-0.1-0.2-0.2-0.2C108.3,18.1,107.5,18.1,107.5,18.1z M111.6,19.2h2.3c1,0,1.6,0.5,1.6,1.5
	c0,0.9-0.6,1.5-1.6,1.5h-2.3V19.2z M110.8,18.1c-0.1,0-0.2,0.1-0.2,0.2v8.4c0,0.1,0.1,0.2,0.2,0.2h0.6c0.1,0,0.2-0.1,0.2-0.2v-3.6
	h1.9l1.9,3.7c0,0.1,0.1,0.1,0.2,0.1h0.7c0.1,0,0.2,0,0.2-0.1s0-0.2,0-0.2l-1.9-3.6c1.1-0.3,1.8-1.2,1.8-2.4c0-1.5-1-2.5-2.6-2.5
	H110.8z M134.7,18.1c-0.1,0-0.2,0.1-0.2,0.1l-1.9,3.8l-1.9-3.8c0-0.1-0.1-0.1-0.2-0.1h-0.7c-0.1,0-0.2,0-0.2,0.1s0,0.2,0,0.2
	l2.5,4.9v3.4c0,0.1,0.1,0.2,0.2,0.2h0.6c0.1,0,0.2-0.1,0.2-0.2v-3.4l2.5-4.9c0-0.1,0-0.2,0-0.2c0-0.1-0.1-0.1-0.2-0.1H134.7z
	 M149.7,18.1c-0.1,0-0.2,0.1-0.2,0.2V24c0,1.3-0.8,2.1-2,2.1s-2-0.8-2-2.1v-5.6c0-0.1-0.1-0.2-0.2-0.2h-0.6c-0.1,0-0.2,0.1-0.2,0.2
	V24c0,1.8,1.3,3,3.1,3s3.1-1.2,3.1-3v-5.7c0-0.1-0.1-0.2-0.2-0.2C150.5,18.1,149.7,18.1,149.7,18.1z M153.8,19.2h2.3
	c1,0,1.6,0.5,1.6,1.5c0,0.9-0.6,1.5-1.6,1.5h-2.3V19.2z M153,18.1c-0.1,0-0.2,0.1-0.2,0.2v8.4c0,0.1,0.1,0.2,0.2,0.2h0.6
	c0.1,0,0.2-0.1,0.2-0.2v-3.6h2l1.9,3.7c0,0.1,0.1,0.1,0.2,0.1h0.7c0.1,0,0.2,0,0.2-0.1s0-0.2,0-0.2L157,23c1.1-0.3,1.8-1.2,1.8-2.4
	c0-1.5-1-2.5-2.6-2.5H153z M95.7,25.5c-0.5-0.5-0.6-1.1-0.6-2.9s0-2.4,0.6-2.9c0.4-0.4,0.9-0.6,1.4-0.6s1.1,0.2,1.4,0.6
	c0.5,0.5,0.6,1.1,0.6,2.9s0,2.4-0.6,2.9c-0.4,0.4-0.9,0.6-1.4,0.6C96.6,26,96.1,25.8,95.7,25.5 M94.9,19c-0.8,0.8-0.8,1.7-0.8,3.6
	s0,2.7,0.8,3.6c0.6,0.6,1.4,0.9,2.3,0.9s1.7-0.3,2.3-0.9c0.8-0.8,0.8-1.7,0.8-3.6s0-2.7-0.8-3.6c-0.6-0.6-1.4-0.9-2.3-0.9
	S95.5,18.4,94.9,19 M117.9,20.6c0,0.7,0.2,1.3,0.7,1.7c0.4,0.3,0.9,0.6,1.6,0.7l1,0.2c0.6,0.1,0.8,0.2,1.1,0.4
	c0.3,0.2,0.4,0.6,0.4,1c0,0.9-0.7,1.5-1.9,1.5c-1,0-1.5-0.2-2.2-0.9c-0.1-0.1-0.2-0.1-0.3,0l-0.4,0.4c0,0-0.1,0.1-0.1,0.2
	s0,0.1,0.1,0.2c0.8,0.8,1.7,1.2,3,1.2c1.9,0,3.1-1,3.1-2.6c0-0.7-0.3-1.4-0.8-1.8c-0.4-0.3-0.8-0.5-1.6-0.6l-0.9-0.1
	c-0.4-0.1-0.9-0.2-1.1-0.5c-0.2-0.2-0.4-0.5-0.4-0.9c0-0.9,0.6-1.5,1.7-1.5c0.9,0,1.4,0.3,1.9,0.7c0.1,0.1,0.2,0.1,0.3,0l0.4-0.4
	c0,0,0.1-0.1,0.1-0.2s0-0.1-0.1-0.2c-0.8-0.7-1.5-1-2.6-1C119.1,18.1,117.9,19.1,117.9,20.6 M137.9,25.5c-0.5-0.5-0.6-1.1-0.6-2.9
	c0-1.7,0-2.4,0.6-2.9c0.4-0.4,0.9-0.6,1.4-0.6s1.1,0.2,1.4,0.6c0.5,0.5,0.6,1.1,0.6,2.9s0,2.4-0.6,2.9c-0.4,0.4-0.9,0.6-1.4,0.6
	C138.8,26,138.3,25.8,137.9,25.5 M137.1,19c-0.8,0.8-0.8,1.7-0.8,3.6s0,2.7,0.8,3.6c0.6,0.6,1.4,0.9,2.3,0.9c0.9,0,1.7-0.3,2.3-0.9
	c0.8-0.8,0.8-1.7,0.8-3.6s0-2.7-0.8-3.6c-0.6-0.6-1.4-0.9-2.3-0.9S137.7,18.4,137.1,19 M160.1,20.6c0,0.7,0.2,1.3,0.7,1.7
	c0.4,0.3,0.9,0.6,1.6,0.7l1,0.2c0.6,0.1,0.8,0.2,1.1,0.4c0.3,0.2,0.4,0.6,0.4,1c0,0.9-0.7,1.5-1.9,1.5c-1,0-1.5-0.2-2.2-0.9
	c-0.1-0.1-0.2-0.1-0.3,0l-0.4,0.4c-0.1,0.1-0.1,0.2,0,0.3c0.8,0.8,1.7,1.2,3,1.2c1.9,0,3.1-1,3.1-2.6c0-0.7-0.3-1.4-0.8-1.8
	c-0.4-0.3-0.8-0.5-1.6-0.6l-0.9-0.1c-0.4-0.1-0.9-0.2-1.1-0.5c-0.2-0.2-0.4-0.5-0.4-0.9c0-0.9,0.6-1.5,1.7-1.5
	c0.9,0,1.4,0.3,1.9,0.7c0.1,0.1,0.2,0.1,0.3,0l0.4-0.4c0,0,0.1-0.1,0.1-0.2s0-0.1-0.1-0.2c-0.8-0.7-1.5-1-2.6-1
	C161.3,18.1,160.1,19.1,160.1,20.6 M43.1,9.4c-9.8,6.5-17.5,15-22.9,25.2c-3.8,7.3-6.4,15.2-7.7,23.7c-0.9,0.1-1.5,0.1-2.3,0.1
	c-3.4,0-6.8-0.5-10-1.4L0,57l0.1,0.2c1,1.7,3.1,2.3,4.7,2.5c1.9,0.3,3.8,0.5,5.8,0.5c0.5,0,1.1,0,1.6,0c0,0.2,0,0.4-0.1,0.5
	c-0.7,5.4-0.6,9.3-0.5,10.4l0.1,2.7c0,0,0,1.1,0.2,2.6c0.1,0.7,0.2,1.6,0.3,2.6c0.1,1.1,0.3,2.3,0.3,3c0.2,0.7,0.3,1.2,0.5,1.7
	c0,0.1,0.1,0.2,0.1,0.3l0.1,0.1h0.1c0.1,0,0.3,0.1,0.5,0.1H14V84c-0.6-3.2-0.9-6.8-1-10.7L12.9,71c0,0,0-0.7,0-2l0,0l0,0
	c0-2,0.1-3.4,0.1-3.9c0-0.1,0-0.1,0-0.2l0,0c0.1-1.3,0.2-2.7,0.4-4.2c0-0.2,0.1-0.4,0.1-0.6c0.9-0.1,2.5-0.3,4-0.5h0.1
	c0.2,0,0.4-0.1,0.7-0.1c0.2,0,0.4,0,0.6,0.2c0.1,0.1,0.2,0.2,0.3,0.3l0,0c0.1,0.1,0.1,0.1,0.2,0.2c0.6,0.6,1.6,0.6,2.4,0.6h0.1
	c3,0,6-0.5,8.9-1.4c0.6-0.2,1.3-0.4,1.7-0.9c0.2-0.3,0.4-0.7,0.3-1.1c0-0.3-0.2-0.6-0.4-0.7h-0.1h-0.1c-3.3,1.5-7,2.3-10.7,2.3
	c-0.1,0-0.1,0-0.2,0l0.4-0.2c0.9-0.4,1.8-0.8,2.8-1.1c0.5-0.2,1.1-0.5,1.3-1c0.1-0.3,0.1-0.6-0.1-0.9c-0.1-0.2-0.4-0.3-0.6-0.3
	c-0.1,0-0.2,0-0.2,0c-1.5,0.7-3.5,1.3-5.6,1.9c-1.9,0.5-3.8,0.8-5.5,1c1.3-7.9,3.8-15.4,7.4-22.1c5.1-9.7,12.5-17.7,21.7-23.7
	C51.6,7,60.1,3.9,67,3.9c5.7,0,9.9,2.1,11.5,5.8c2.2,5.1-1,12.2-8.7,19.3l-0.1,0c-1.1,0.9-5.1,4-9.6,7.3c-2.1,1.7-3.3,3.2-3,3.7
	c0.1,0.3,0.5,0.3,1,0c0.8-0.4,1.5-1,2.1-1.5c0.2-0.2,0.4-0.3,0.6-0.4c3.7-2.9,8.9-4.6,14.2-4.6c4.1,0,7.9,1,11.1,2.8
	c4,2.3,6.8,6.7,7.2,11.5c0.3,2.9-0.3,5.7-1.6,7.9c-2.2,3.9-6.5,5.9-9.7,7c-2.4,0.8-5,1.3-7.5,1.8c-1.5,0.3-3.1,0.6-4.6,1
	c-0.3,0.1-0.9,0.5-1,1c-0.1,0.2,0,0.5,0.3,0.6c0.1,0.1,0.2,0.1,0.4,0.1c0.2,0,0.5,0,0.7-0.1c0.1,0,0.2,0,0.3,0c0.5,0,1-0.1,1.5-0.1
	c2.8-0.3,5.6-0.7,9.2-1.5c13.9-3.6,15.5-12.2,15.2-17c-0.3-5-2.9-10.1-7.1-13.6c-3-2.5-7.5-4-12.4-4c-2.6,0-5.2,0.4-7.5,1.2
	c-0.1,0-0.3,0.1-0.4,0.1c0.2-0.2,0.5-0.4,0.8-0.6c0.3-0.3,0.7-0.5,0.8-0.6c3.8-2.5,7.4-6.4,9.6-10.4c1.9-3.4,3.8-8.5,1.7-13.5
	c-1.9-4.5-6.7-7-13.2-7C63.6,0,54.9,1.6,43.1,9.4"/>
</svg>
